<svg width="17" height="17" viewBox="0 0 17 17" fill="none" xmlns="http://www.w3.org/2000/svg">
<g clip-path="url(#clip0_126_785)">
<path d="M13.458 6.37499L14.3434 4.42708L16.2913 3.54166L14.3434 2.65624L13.458 0.708328L12.5726 2.65624L10.6247 3.54166L12.5726 4.42708L13.458 6.37499Z" fill="white"/>
<path d="M13.458 10.625L12.5726 12.5729L10.6247 13.4583L12.5726 14.3437L13.458 16.2917L14.3434 14.3437L16.2913 13.4583L14.3434 12.5729L13.458 10.625Z" fill="white"/>
<path d="M8.14551 6.72916L6.37467 2.83333L4.60384 6.72916L0.708008 8.49999L4.60384 10.2708L6.37467 14.1667L8.14551 10.2708L12.0413 8.49999L8.14551 6.72916ZM7.07592 9.20124L6.37467 10.7454L5.67342 9.20124L4.12926 8.49999L5.67342 7.79874L6.37467 6.25458L7.07592 7.79874L8.62009 8.49999L7.07592 9.20124Z" fill="white"/>
</g>
<defs>
<clipPath id="clip0_126_785">
<rect width="17" height="17" fill="white"/>
</clipPath>
</defs>
</svg>
