<svg width="274" height="198" viewBox="0 0 274 198" fill="none" xmlns="http://www.w3.org/2000/svg">
<rect width="273.536" height="197.988" rx="17.3674" fill="black" fill-opacity="0.01"/>
<path d="M32.0669 44.6479C30.7192 44.6479 29.5312 44.3422 28.5031 43.7309C27.4749 43.1057 26.6691 42.2234 26.0856 41.0841C25.502 39.9309 25.2102 38.5485 25.2102 36.9368C25.2102 35.3529 25.4951 33.9844 26.0647 32.8312C26.6344 31.6641 27.4333 30.7679 28.4614 30.1427C29.4896 29.5036 30.6983 29.184 32.0877 29.184C33.9773 29.184 35.4431 29.6564 36.4851 30.6012C37.5272 31.5321 38.208 32.8381 38.5275 34.5193L35.6932 34.6652C35.5126 33.6926 35.1235 32.9284 34.5261 32.3727C33.9287 31.8169 33.1159 31.539 32.0877 31.539C31.2541 31.539 30.5316 31.7613 29.9203 32.2059C29.3089 32.6505 28.8365 33.2758 28.5031 34.0816C28.1696 34.8875 28.0029 35.8392 28.0029 36.9368C28.0029 38.0483 28.1696 39.007 28.5031 39.8128C28.8504 40.6048 29.3298 41.2161 29.9411 41.6468C30.5524 42.0775 31.261 42.2929 32.0669 42.2929C33.1645 42.2929 34.012 41.9942 34.6095 41.3967C35.2208 40.7854 35.6098 39.9518 35.7765 38.8958L38.6109 39.0417C38.4164 40.1949 38.0412 41.1953 37.4855 42.0428C36.9297 42.8764 36.1934 43.5225 35.2764 43.981C34.3733 44.4256 33.3034 44.6479 32.0669 44.6479ZM46.7103 44.6479C45.2515 44.6479 43.9941 44.3422 42.9381 43.7309C41.8822 43.1057 41.0694 42.2165 40.4998 41.0633C39.944 39.9101 39.6661 38.5346 39.6661 36.9368C39.6661 35.339 39.944 33.9635 40.4998 32.8103C41.0694 31.6432 41.8822 30.7471 42.9381 30.1219C43.9941 29.4966 45.2515 29.184 46.7103 29.184C48.197 29.184 49.4613 29.4966 50.5033 30.1219C51.5593 30.7471 52.3651 31.6432 52.9209 32.8103C53.4905 33.9635 53.7754 35.339 53.7754 36.9368C53.7754 38.5346 53.4905 39.9101 52.9209 41.0633C52.3651 42.2165 51.5593 43.1057 50.5033 43.7309C49.4613 44.3422 48.197 44.6479 46.7103 44.6479ZM46.7103 42.2929C47.6134 42.2929 48.3776 42.0845 49.0028 41.6677C49.6419 41.237 50.1282 40.6256 50.4617 39.8337C50.809 39.0278 50.9827 38.0622 50.9827 36.9368C50.9827 35.8114 50.809 34.8458 50.4617 34.0399C50.1282 33.2341 49.6419 32.6158 49.0028 32.1851C48.3776 31.7544 47.6134 31.539 46.7103 31.539C45.835 31.539 45.0778 31.7544 44.4387 32.1851C43.7995 32.6158 43.3063 33.2341 42.959 34.0399C42.6255 34.8458 42.4588 35.8114 42.4588 36.9368C42.4588 38.0622 42.6255 39.0278 42.959 39.8337C43.3063 40.6256 43.7995 41.237 44.4387 41.6677C45.0778 42.0845 45.835 42.2929 46.7103 42.2929ZM55.4426 44.3145V29.5175H58.1519V43.4808L56.6722 41.9594H65.1753V44.3145H55.4426ZM72.3453 44.6479C70.8865 44.6479 69.6291 44.3422 68.5732 43.7309C67.5172 43.1057 66.7044 42.2165 66.1348 41.0633C65.579 39.9101 65.3011 38.5346 65.3011 36.9368C65.3011 35.339 65.579 33.9635 66.1348 32.8103C66.7044 31.6432 67.5172 30.7471 68.5732 30.1219C69.6291 29.4966 70.8865 29.184 72.3453 29.184C73.832 29.184 75.0963 29.4966 76.1384 30.1219C77.1943 30.7471 78.0002 31.6432 78.5559 32.8103C79.1256 33.9635 79.4104 35.339 79.4104 36.9368C79.4104 38.5346 79.1256 39.9101 78.5559 41.0633C78.0002 42.2165 77.1943 43.1057 76.1384 43.7309C75.0963 44.3422 73.832 44.6479 72.3453 44.6479ZM72.3453 42.2929C73.2484 42.2929 74.0126 42.0845 74.6378 41.6677C75.277 41.237 75.7632 40.6256 76.0967 39.8337C76.444 39.0278 76.6177 38.0622 76.6177 36.9368C76.6177 35.8114 76.444 34.8458 76.0967 34.0399C75.7632 33.2341 75.277 32.6158 74.6378 32.1851C74.0126 31.7544 73.2484 31.539 72.3453 31.539C71.47 31.539 70.7128 31.7544 70.0737 32.1851C69.4346 32.6158 68.9413 33.2341 68.594 34.0399C68.2605 34.8458 68.0938 35.8114 68.0938 36.9368C68.0938 38.0622 68.2605 39.0278 68.594 39.8337C68.9413 40.6256 69.4346 41.237 70.0737 41.6677C70.7128 42.0845 71.47 42.2929 72.3453 42.2929ZM81.0166 44.3145V29.5175H87.2063C88.2761 29.5175 89.2001 29.6981 89.9781 30.0593C90.7562 30.4206 91.3606 30.9346 91.7913 31.6016C92.222 32.2685 92.4374 33.0535 92.4374 33.9566C92.4374 34.6374 92.2915 35.2417 91.9997 35.7697C91.7079 36.2977 91.312 36.7214 90.8118 37.041C90.3255 37.3606 89.7836 37.5551 89.1862 37.6245L89.082 37.4161C90.0407 37.4161 90.777 37.6315 91.2911 38.0622C91.8191 38.4929 92.1178 39.1529 92.1873 40.0421L92.5624 44.3145H89.8114L89.4988 40.4381C89.4571 39.8545 89.2696 39.4238 88.9361 39.1459C88.6027 38.8681 88.0469 38.7291 87.2688 38.7291H83.7259V44.3145H81.0166ZM83.7259 36.3533H87.0396C87.8593 36.3533 88.4984 36.1587 88.9569 35.7697C89.4154 35.3807 89.6447 34.8319 89.6447 34.1233C89.6447 33.4008 89.4085 32.8451 88.9361 32.456C88.4776 32.067 87.8038 31.8725 86.9145 31.8725H83.7259V36.3533ZM100.04 44.6479C98.8175 44.6479 97.7616 44.4326 96.8724 44.0018C95.9832 43.5711 95.2815 42.9737 94.7675 42.2095C94.2673 41.4315 93.9755 40.5284 93.8921 39.5002L96.6431 39.3335C96.7265 39.9726 96.9071 40.5145 97.185 40.9591C97.4768 41.4037 97.8589 41.7441 98.3312 41.9803C98.8175 42.2026 99.4011 42.3137 100.082 42.3137C100.665 42.3137 101.159 42.2443 101.562 42.1053C101.978 41.9525 102.291 41.7371 102.499 41.4593C102.722 41.1675 102.833 40.8132 102.833 40.3964C102.833 40.0212 102.743 39.6878 102.562 39.396C102.381 39.0904 102.034 38.8194 101.52 38.5832C101.006 38.3331 100.242 38.09 99.2274 37.8538C98.0047 37.5759 97.0252 37.2633 96.2888 36.916C95.5525 36.5547 95.0176 36.1101 94.6841 35.5821C94.3506 35.0403 94.1839 34.3664 94.1839 33.5606C94.1839 32.6992 94.3993 31.942 94.83 31.2889C95.2607 30.622 95.872 30.108 96.664 29.7467C97.4559 29.3716 98.4077 29.184 99.5192 29.184C100.7 29.184 101.701 29.3994 102.52 29.8301C103.34 30.2469 103.986 30.8235 104.458 31.5599C104.931 32.2962 105.223 33.1438 105.334 34.1024L102.604 34.2275C102.534 33.6856 102.367 33.2132 102.103 32.8103C101.853 32.4074 101.506 32.0948 101.061 31.8725C100.631 31.6363 100.103 31.5182 99.4775 31.5182C98.6994 31.5182 98.0812 31.6988 97.6227 32.06C97.1781 32.4074 96.9558 32.8728 96.9558 33.4564C96.9558 33.8593 97.0461 34.1928 97.2267 34.4567C97.4212 34.7207 97.7616 34.95 98.2479 35.1445C98.7342 35.3251 99.415 35.5196 100.29 35.728C101.61 36.0059 102.659 36.3602 103.437 36.7909C104.215 37.2216 104.771 37.7218 105.105 38.2915C105.438 38.8611 105.605 39.5141 105.605 40.2505C105.605 41.1536 105.375 41.9386 104.917 42.6055C104.458 43.2585 103.812 43.7656 102.979 44.1269C102.145 44.4742 101.166 44.6479 100.04 44.6479Z" fill="black"/>
<path d="M29.7693 167.346C28.8731 167.346 28.0864 167.174 27.4091 166.83C26.7421 166.486 26.2263 166.002 25.8616 165.376C25.5073 164.741 25.3302 163.99 25.3302 163.126V155.982H27.3622V163.126C27.3622 163.907 27.5706 164.511 27.9874 164.939C28.4042 165.366 28.9982 165.58 29.7693 165.58C30.5404 165.58 31.1343 165.366 31.5512 164.939C31.9784 164.511 32.192 163.907 32.192 163.126V155.982H34.224V163.126C34.224 163.99 34.0416 164.741 33.6769 165.376C33.3122 166.002 32.7964 166.486 32.1295 166.83C31.473 167.174 30.6863 167.346 29.7693 167.346ZM39.5036 167.283C38.6804 167.283 37.9875 167.163 37.4247 166.924C36.8725 166.684 36.4452 166.351 36.143 165.923C35.8408 165.496 35.6689 165.012 35.6272 164.47L37.6748 164.376C37.7478 164.814 37.9301 165.152 38.2219 165.392C38.5137 165.632 38.9461 165.751 39.5193 165.751C39.9882 165.751 40.3529 165.679 40.6134 165.533C40.8843 165.376 41.0198 165.137 41.0198 164.814C41.0198 164.626 40.9729 164.47 40.8791 164.345C40.7853 164.22 40.6082 164.11 40.3477 164.016C40.0872 163.923 39.7016 163.829 39.191 163.735C38.3365 163.589 37.6644 163.412 37.1747 163.204C36.6849 162.985 36.3358 162.714 36.1274 162.391C35.9294 162.068 35.8304 161.667 35.8304 161.187C35.8304 160.406 36.1274 159.775 36.7214 159.296C37.3258 158.806 38.2063 158.561 39.3629 158.561C40.1132 158.561 40.7437 158.686 41.2543 158.937C41.7649 159.176 42.1608 159.51 42.4422 159.937C42.7339 160.354 42.9163 160.833 42.9892 161.375L40.9729 161.469C40.9208 161.187 40.827 160.942 40.6915 160.734C40.5561 160.526 40.3737 160.369 40.1445 160.265C39.9152 160.15 39.6443 160.093 39.3317 160.093C38.8628 160.093 38.5085 160.187 38.2688 160.375C38.0291 160.562 37.9093 160.812 37.9093 161.125C37.9093 161.344 37.9614 161.526 38.0656 161.672C38.1802 161.818 38.3626 161.938 38.6127 162.031C38.8628 162.115 39.1962 162.193 39.613 162.266C40.4883 162.401 41.1761 162.578 41.6763 162.797C42.1869 163.006 42.5464 163.277 42.7548 163.61C42.9736 163.933 43.083 164.324 43.083 164.782C43.083 165.314 42.9319 165.767 42.6297 166.142C42.338 166.517 41.9212 166.804 41.3793 167.002C40.8479 167.189 40.2226 167.283 39.5036 167.283ZM48.0294 167.283C47.1958 167.283 46.4716 167.106 45.8567 166.752C45.2419 166.387 44.7678 165.877 44.4344 165.22C44.1009 164.564 43.9342 163.798 43.9342 162.922C43.9342 162.047 44.1009 161.286 44.4344 160.64C44.7678 159.984 45.2367 159.473 45.8411 159.108C46.4559 158.744 47.1697 158.561 47.9825 158.561C48.7745 158.561 49.4674 158.739 50.0614 159.093C50.6658 159.447 51.1295 159.958 51.4525 160.625C51.7755 161.292 51.9371 162.094 51.9371 163.032V163.485H46.0131C46.0547 164.214 46.2527 164.767 46.607 165.142C46.9717 165.507 47.4511 165.689 48.045 165.689C48.4931 165.689 48.863 165.59 49.1548 165.392C49.457 165.184 49.6654 164.897 49.78 164.532L51.8276 164.657C51.5984 165.47 51.1451 166.111 50.4678 166.58C49.8009 167.049 48.9881 167.283 48.0294 167.283ZM46.0131 162.141H49.8738C49.8321 161.463 49.6394 160.963 49.2955 160.64C48.9516 160.307 48.514 160.14 47.9825 160.14C47.4511 160.14 47.0082 160.312 46.6539 160.656C46.31 161 46.0964 161.495 46.0131 162.141ZM60.5223 167.283C59.6887 167.283 58.9645 167.106 58.3497 166.752C57.7349 166.387 57.2555 165.877 56.9117 165.22C56.5782 164.564 56.4115 163.798 56.4115 162.922C56.4115 162.047 56.5782 161.286 56.9117 160.64C57.2555 159.984 57.7349 159.473 58.3497 159.108C58.9645 158.744 59.6887 158.561 60.5223 158.561C61.2309 158.561 61.8613 158.686 62.4136 158.937C62.9659 159.187 63.414 159.546 63.7579 160.015C64.1122 160.474 64.331 161.036 64.4143 161.703L62.3511 161.813C62.2677 161.281 62.0593 160.88 61.7259 160.609C61.4028 160.328 61.0017 160.187 60.5223 160.187C59.8763 160.187 59.3761 160.432 59.0218 160.922C58.6675 161.401 58.4903 162.068 58.4903 162.922C58.4903 163.787 58.6675 164.459 59.0218 164.939C59.3761 165.418 59.8763 165.658 60.5223 165.658C61.0121 165.658 61.4185 165.517 61.7415 165.236C62.075 164.954 62.2782 164.517 62.3511 163.923L64.4143 164.016C64.331 164.683 64.1174 165.262 63.7735 165.751C63.4296 166.241 62.9815 166.622 62.4293 166.893C61.877 167.153 61.2413 167.283 60.5223 167.283ZM68.3356 167.283C67.4915 167.283 66.8194 167.007 66.3192 166.455C65.8295 165.892 65.5846 165.116 65.5846 164.126V158.749H67.5853V163.626C67.5853 164.324 67.6999 164.84 67.9292 165.173C68.1688 165.496 68.5283 165.658 69.0077 165.658C69.5495 165.658 69.9664 165.481 70.2581 165.126C70.5603 164.762 70.7114 164.235 70.7114 163.548V158.749H72.7121V167.096H70.8834L70.8365 164.798L71.0866 164.876C70.9615 165.668 70.6645 166.267 70.1956 166.674C69.7267 167.08 69.1067 167.283 68.3356 167.283ZM77.9245 167.283C77.1013 167.283 76.4083 167.163 75.8456 166.924C75.2933 166.684 74.8661 166.351 74.5639 165.923C74.2617 165.496 74.0898 165.012 74.0481 164.47L76.0957 164.376C76.1686 164.814 76.351 165.152 76.6428 165.392C76.9345 165.632 77.367 165.751 77.9401 165.751C78.409 165.751 78.7737 165.679 79.0343 165.533C79.3052 165.376 79.4407 165.137 79.4407 164.814C79.4407 164.626 79.3938 164.47 79.3 164.345C79.2062 164.22 79.029 164.11 78.7685 164.016C78.508 163.923 78.1225 163.829 77.6119 163.735C76.7574 163.589 76.0853 163.412 75.5955 163.204C75.1058 162.985 74.7567 162.714 74.5483 162.391C74.3503 162.068 74.2513 161.667 74.2513 161.187C74.2513 160.406 74.5483 159.775 75.1422 159.296C75.7466 158.806 76.6271 158.561 77.7838 158.561C78.5341 158.561 79.1645 158.686 79.6751 158.937C80.1857 159.176 80.5817 159.51 80.863 159.937C81.1548 160.354 81.3372 160.833 81.4101 161.375L79.3938 161.469C79.3417 161.187 79.2479 160.942 79.1124 160.734C78.9769 160.526 78.7946 160.369 78.5653 160.265C78.3361 160.15 78.0652 160.093 77.7525 160.093C77.2836 160.093 76.9293 160.187 76.6897 160.375C76.45 160.562 76.3302 160.812 76.3302 161.125C76.3302 161.344 76.3823 161.526 76.4865 161.672C76.6011 161.818 76.7834 161.938 77.0335 162.031C77.2836 162.115 77.6171 162.193 78.0339 162.266C78.9092 162.401 79.597 162.578 80.0971 162.797C80.6077 163.006 80.9672 163.277 81.1757 163.61C81.3945 163.933 81.5039 164.324 81.5039 164.782C81.5039 165.314 81.3528 165.767 81.0506 166.142C80.7588 166.517 80.342 166.804 79.8002 167.002C79.2687 167.189 78.6435 167.283 77.9245 167.283ZM85.8945 167.096C85.0609 167.096 84.4461 166.903 84.0501 166.517C83.6646 166.132 83.4718 165.527 83.4718 164.704V156.795H85.4725V164.517C85.4725 164.902 85.5559 165.173 85.7226 165.329C85.8893 165.475 86.1498 165.548 86.5041 165.548H87.6764V167.096H85.8945ZM82.1588 160.296V158.749H87.6764V160.296H82.1588ZM92.4069 167.283C91.5837 167.283 90.8595 167.106 90.2342 166.752C89.6194 166.387 89.1401 165.877 88.7962 165.22C88.4628 164.564 88.296 163.798 88.296 162.922C88.296 162.037 88.4628 161.271 88.7962 160.625C89.1401 159.968 89.6194 159.463 90.2342 159.108C90.8595 158.744 91.5837 158.561 92.4069 158.561C93.2301 158.561 93.9491 158.744 94.5639 159.108C95.1787 159.463 95.6528 159.968 95.9863 160.625C96.3302 161.271 96.5021 162.037 96.5021 162.922C96.5021 163.798 96.3302 164.564 95.9863 165.22C95.6528 165.877 95.1787 166.387 94.5639 166.752C93.9491 167.106 93.2301 167.283 92.4069 167.283ZM92.4069 165.658C93.053 165.658 93.5479 165.418 93.8918 164.939C94.2461 164.459 94.4232 163.787 94.4232 162.922C94.4232 162.068 94.2461 161.401 93.8918 160.922C93.5479 160.432 93.053 160.187 92.4069 160.187C91.7608 160.187 91.2606 160.432 90.9063 160.922C90.5521 161.401 90.3749 162.068 90.3749 162.922C90.3749 163.787 90.5521 164.459 90.9063 164.939C91.2606 165.418 91.7608 165.658 92.4069 165.658ZM97.8202 167.096V158.749H99.6334L99.6959 160.797L99.5083 160.703C99.6021 160.255 99.7636 159.874 99.9929 159.562C100.233 159.239 100.519 158.994 100.853 158.827C101.196 158.65 101.572 158.561 101.978 158.561C102.687 158.561 103.26 158.765 103.697 159.171C104.135 159.567 104.411 160.114 104.526 160.812H104.26C104.354 160.322 104.515 159.916 104.745 159.593C104.974 159.26 105.26 159.004 105.604 158.827C105.959 158.65 106.355 158.561 106.792 158.561C107.365 158.561 107.86 158.686 108.277 158.937C108.694 159.176 109.012 159.53 109.231 159.999C109.46 160.468 109.574 161.047 109.574 161.734V167.096H107.574V162.25C107.574 161.562 107.454 161.047 107.214 160.703C106.985 160.359 106.631 160.187 106.151 160.187C105.828 160.187 105.552 160.27 105.323 160.437C105.094 160.604 104.917 160.849 104.791 161.172C104.677 161.484 104.62 161.865 104.62 162.313V167.096H102.76V162.313C102.76 161.625 102.655 161.099 102.447 160.734C102.238 160.369 101.879 160.187 101.368 160.187C101.045 160.187 100.769 160.27 100.54 160.437C100.321 160.604 100.144 160.849 100.009 161.172C99.8835 161.484 99.8209 161.865 99.8209 162.313V167.096H97.8202ZM118.625 167.283C117.792 167.283 117.067 167.106 116.453 166.752C115.838 166.387 115.358 165.877 115.015 165.22C114.681 164.564 114.514 163.798 114.514 162.922C114.514 162.047 114.681 161.286 115.015 160.64C115.358 159.984 115.838 159.473 116.453 159.108C117.067 158.744 117.792 158.561 118.625 158.561C119.334 158.561 119.964 158.686 120.517 158.937C121.069 159.187 121.517 159.546 121.861 160.015C122.215 160.474 122.434 161.036 122.517 161.703L120.454 161.813C120.371 161.281 120.162 160.88 119.829 160.609C119.506 160.328 119.105 160.187 118.625 160.187C117.979 160.187 117.479 160.432 117.125 160.922C116.77 161.401 116.593 162.068 116.593 162.922C116.593 163.787 116.77 164.459 117.125 164.939C117.479 165.418 117.979 165.658 118.625 165.658C119.115 165.658 119.521 165.517 119.844 165.236C120.178 164.954 120.381 164.517 120.454 163.923L122.517 164.016C122.434 164.683 122.22 165.262 121.876 165.751C121.533 166.241 121.084 166.622 120.532 166.893C119.98 167.153 119.344 167.283 118.625 167.283ZM127.314 167.283C126.491 167.283 125.766 167.106 125.141 166.752C124.526 166.387 124.047 165.877 123.703 165.22C123.37 164.564 123.203 163.798 123.203 162.922C123.203 162.037 123.37 161.271 123.703 160.625C124.047 159.968 124.526 159.463 125.141 159.108C125.766 158.744 126.491 158.561 127.314 158.561C128.137 158.561 128.856 158.744 129.471 159.108C130.086 159.463 130.56 159.968 130.893 160.625C131.237 161.271 131.409 162.037 131.409 162.922C131.409 163.798 131.237 164.564 130.893 165.22C130.56 165.877 130.086 166.387 129.471 166.752C128.856 167.106 128.137 167.283 127.314 167.283ZM127.314 165.658C127.96 165.658 128.455 165.418 128.799 164.939C129.153 164.459 129.33 163.787 129.33 162.922C129.33 162.068 129.153 161.401 128.799 160.922C128.455 160.432 127.96 160.187 127.314 160.187C126.668 160.187 126.168 160.432 125.813 160.922C125.459 161.401 125.282 162.068 125.282 162.922C125.282 163.787 125.459 164.459 125.813 164.939C126.168 165.418 126.668 165.658 127.314 165.658ZM134.804 167.096C134.2 167.096 133.715 166.939 133.351 166.627C132.986 166.314 132.803 165.814 132.803 165.126V155.998H134.804V164.923C134.804 165.131 134.856 165.288 134.96 165.392C135.075 165.496 135.231 165.548 135.429 165.548H136.039V167.096H134.804ZM140.722 167.283C139.899 167.283 139.175 167.106 138.55 166.752C137.935 166.387 137.455 165.877 137.112 165.22C136.778 164.564 136.611 163.798 136.611 162.922C136.611 162.037 136.778 161.271 137.112 160.625C137.455 159.968 137.935 159.463 138.55 159.108C139.175 158.744 139.899 158.561 140.722 158.561C141.545 158.561 142.264 158.744 142.879 159.108C143.494 159.463 143.968 159.968 144.302 160.625C144.645 161.271 144.817 162.037 144.817 162.922C144.817 163.798 144.645 164.564 144.302 165.22C143.968 165.877 143.494 166.387 142.879 166.752C142.264 167.106 141.545 167.283 140.722 167.283ZM140.722 165.658C141.368 165.658 141.863 165.418 142.207 164.939C142.561 164.459 142.739 163.787 142.739 162.922C142.739 162.068 142.561 161.401 142.207 160.922C141.863 160.432 141.368 160.187 140.722 160.187C140.076 160.187 139.576 160.432 139.222 160.922C138.867 161.401 138.69 162.068 138.69 162.922C138.69 163.787 138.867 164.459 139.222 164.939C139.576 165.418 140.076 165.658 140.722 165.658ZM146.136 167.096V158.749H148.011L148.089 161.062L147.917 161.031C148.042 160.229 148.277 159.65 148.621 159.296C148.975 158.931 149.454 158.749 150.059 158.749H150.825V160.468H150.043C149.616 160.468 149.262 160.531 148.98 160.656C148.699 160.781 148.485 160.979 148.339 161.25C148.204 161.51 148.136 161.854 148.136 162.281V167.096H146.136Z" fill="#0059ED"/>
<circle cx="42.5498" cy="76.4164" r="15.1964" fill="#1E384F" stroke="#0386FF" stroke-width="6.07857"/>
<circle cx="91.1782" cy="76.4164" r="15.1964" fill="#015C61" stroke="#1C9FA5" stroke-width="6.07857"/>
<circle cx="139.807" cy="76.4164" r="15.1964" fill="#800706" stroke="#FF8548" stroke-width="6.07857"/>
<circle cx="188.436" cy="76.4164" r="15.1964" fill="#861F97" stroke="#441C4C" stroke-width="6.07857"/>
<circle cx="237.064" cy="76.4164" r="15.1964" fill="#02ADC3" stroke="#2E2E2E" stroke-width="6.07857"/>
<circle cx="42.5499" cy="121.571" r="15.1964" fill="#1D90FF" stroke="black" stroke-width="6.07857"/>
<circle cx="91.1785" cy="121.571" r="15.1964" fill="#6F7878" stroke="black" stroke-width="6.07857"/>
<circle cx="139.807" cy="121.571" r="15.1964" fill="#3C6DF1" stroke="#1D2537" stroke-width="6.07857"/>
<circle cx="188.436" cy="121.571" r="15.1964" fill="#FA6B05" stroke="#042D7C" stroke-width="6.07857"/>
<circle cx="237.064" cy="121.571" r="15.1964" fill="#C48A1A" stroke="#18273D" stroke-width="6.07857"/>
<path d="M89.3232 78.6591L87.3144 76.6502C87.0886 76.4245 86.7239 76.4245 86.4981 76.6502C86.2723 76.876 86.2723 77.2407 86.4981 77.4665L88.918 79.8864C89.1437 80.1121 89.5085 80.1121 89.7342 79.8864L95.8591 73.7615C96.0849 73.5357 96.0849 73.171 95.8591 72.9452C95.6333 72.7194 95.2686 72.7194 95.0428 72.9452L89.3232 78.6591Z" fill="#F0F7FF"/>
</svg>
