<svg width="24" height="24" viewBox="0 0 24 24" fill="none" xmlns="http://www.w3.org/2000/svg">
<g clip-path="url(#clip0_2695_286)">
<path d="M7.08977 6.94918C7.41895 6.69782 7.88939 6.76069 8.1408 7.0898C8.39215 7.41896 8.32925 7.88941 8.00017 8.14083C6.62405 9.19165 5.4716 10.5048 4.6076 12.0022C4.68935 12.1433 4.79688 12.3232 4.9306 12.5302C5.27636 13.0656 5.78852 13.7782 6.4533 14.4873C7.79484 15.9182 9.66989 17.2459 11.9911 17.2492C13.4417 17.2248 14.8466 16.7379 16.0004 15.8584C16.3298 15.6074 16.8004 15.6711 17.0514 16.0004C17.3025 16.3299 17.2387 16.8004 16.9094 17.0515C15.5001 18.1257 13.7841 18.721 12.0124 18.75C12.0083 18.75 12.004 18.75 11.9999 18.75C9.0753 18.75 6.82833 17.0799 5.35906 15.5127C4.61777 14.7219 4.0516 13.9342 3.67083 13.3447C3.48001 13.0492 3.33464 12.8012 3.23577 12.6254C3.18635 12.5376 3.14833 12.4675 3.12225 12.4182C3.10922 12.3936 3.09863 12.3742 3.09148 12.3603C3.08794 12.3534 3.08552 12.3476 3.08343 12.3435C3.08238 12.3414 3.08117 12.3397 3.0805 12.3383L3.07977 12.3369L3.07903 12.3361C3.07889 12.3359 3.07911 12.3354 3.74993 12L3.07903 12.3354C2.97006 12.1174 2.97406 11.8602 3.08929 11.6455C4.07274 9.81271 5.43669 8.21152 7.08977 6.94918ZM12.0007 5.25069C14.9249 5.25097 17.1717 6.92018 18.6408 8.48726C19.3821 9.27799 19.9483 10.0657 20.329 10.6552C20.5198 10.9507 20.6652 11.1987 20.7641 11.3745C20.8135 11.4623 20.8515 11.5324 20.8776 11.5817C20.8906 11.6063 20.9012 11.6257 20.9084 11.6396C20.9119 11.6465 20.9143 11.6523 20.9164 11.6565C20.9175 11.6585 20.9187 11.6602 20.9194 11.6616L20.9201 11.663L20.9208 11.6638C20.921 11.6641 20.9207 11.6646 20.2499 12L20.9208 11.6645C21.0296 11.8821 21.026 12.1392 20.9113 12.3537C20.4315 13.2514 19.8594 14.0966 19.204 14.8754C18.9373 15.1924 18.4641 15.2329 18.1471 14.9663C17.8302 14.6996 17.7896 14.2263 18.0563 13.9094C18.5579 13.3133 19.0044 12.6735 19.3923 11.9985C19.3105 11.8572 19.2032 11.677 19.0693 11.4697C18.7235 10.9343 18.2113 10.2218 17.5466 9.51265C16.2033 8.07992 14.3252 6.74996 11.9999 6.74996H11.9985C11.5264 6.74885 11.0555 6.80277 10.5959 6.91036C10.1926 7.00475 9.7894 6.7541 9.695 6.35079C9.60064 5.94756 9.85065 5.5444 10.2538 5.44991C10.8266 5.31584 11.4132 5.2486 12.0014 5.24996L12.0007 5.25069ZM9.89861 9.86129C10.2016 9.57895 10.676 9.59572 10.9584 9.89864C11.2408 10.2017 11.2241 10.6761 10.9211 10.9585C10.7737 11.0957 10.6559 11.2616 10.5739 11.4455C10.4919 11.6295 10.4478 11.8286 10.4443 12.03C10.4408 12.2313 10.4773 12.4315 10.5527 12.6181C10.6281 12.8049 10.7406 12.9745 10.883 13.1169C11.0254 13.2593 11.195 13.3718 11.3818 13.4472C11.5684 13.5226 11.7686 13.5591 11.9699 13.5556C12.1713 13.5521 12.3704 13.508 12.5544 13.426C12.7383 13.344 12.9042 13.2261 13.0414 13.0788C13.3238 12.7758 13.7982 12.7591 14.1012 13.0415C14.4042 13.3239 14.4209 13.7983 14.1386 14.1013C13.864 14.396 13.5325 14.6324 13.1645 14.7963C12.7966 14.9602 12.3996 15.0485 11.997 15.0556C11.5942 15.0627 11.1936 14.989 10.82 14.8381C10.4465 14.6872 10.1073 14.4623 9.82244 14.1774C9.53759 13.8926 9.31268 13.5534 9.1618 13.1799C9.01091 12.8063 8.93716 12.4057 8.94427 12.0029C8.95141 11.6003 9.03968 11.2033 9.20354 10.8354C9.36751 10.4674 9.60388 10.1359 9.89861 9.86129Z" fill="black"/>
<path d="M3.21967 3.21973C3.51256 2.92684 3.98732 2.92684 4.28022 3.21973L20.7802 19.7197C21.0731 20.0126 21.0731 20.4874 20.7802 20.7803C20.4873 21.0732 20.0126 21.0732 19.7197 20.7803L3.21967 4.28028C2.92678 3.98738 2.92678 3.51262 3.21967 3.21973Z" fill="black"/>
</g>
<defs>
<clipPath id="clip0_2695_286">
<rect width="18" height="18" fill="white" transform="translate(3 3)"/>
</clipPath>
</defs>
</svg>
