<svg width="24" height="24" viewBox="0 0 24 24" fill="none" xmlns="http://www.w3.org/2000/svg">
<path d="M12 5C14.9246 5 17.1716 6.73195 18.6408 8.3572C19.3821 9.17722 19.9483 9.99407 20.329 10.6055C20.5198 10.9119 20.6652 11.1691 20.7641 11.3513C20.8135 11.4424 20.8515 11.5152 20.8776 11.5663C20.8906 11.5918 20.9012 11.6119 20.9084 11.6263C20.9119 11.6334 20.9143 11.6395 20.9164 11.6438C20.9175 11.6459 20.9187 11.6477 20.9194 11.6491L20.9201 11.6506L20.9208 11.6514C20.921 11.6517 20.9207 11.6522 20.2499 12C20.9207 12.3478 20.921 12.3483 20.9208 12.3486L20.9201 12.3494L20.9194 12.3509C20.9187 12.3523 20.9175 12.3541 20.9164 12.3562C20.9143 12.3605 20.9119 12.3666 20.9084 12.3737C20.9012 12.3881 20.8906 12.4082 20.8776 12.4337C20.8515 12.4848 20.8135 12.5576 20.7641 12.6487C20.6652 12.8309 20.5198 13.0881 20.329 13.3945C19.9483 14.0059 19.3821 14.8228 18.6408 15.6428C17.1716 17.2681 14.9246 19 12 19C9.07539 19 6.82844 17.2681 5.35919 15.6428C4.61791 14.8228 4.05174 14.0059 3.67097 13.3945C3.48016 13.0881 3.33478 12.8309 3.23592 12.6487C3.1865 12.5576 3.14848 12.4848 3.12239 12.4337C3.10937 12.4082 3.09878 12.3881 3.09163 12.3737C3.08809 12.3666 3.08566 12.3605 3.08357 12.3562C3.08253 12.3541 3.08132 12.3523 3.08064 12.3509L3.07991 12.3494L3.07918 12.3486C3.07904 12.3483 3.07926 12.3478 3.75007 12C3.07926 11.6522 3.07904 11.6517 3.07918 11.6514L3.07991 11.6506L3.08064 11.6491C3.08132 11.6477 3.08253 11.6459 3.08357 11.6438C3.08566 11.6395 3.08809 11.6334 3.09163 11.6263C3.09878 11.6119 3.10937 11.5918 3.12239 11.5663C3.14848 11.5152 3.1865 11.4424 3.23592 11.3513C3.33478 11.1691 3.48016 10.9119 3.67097 10.6055C4.05174 9.99407 4.61791 9.17722 5.35919 8.3572C6.82844 6.73195 9.07539 5 12 5ZM12 6.55556C9.67472 6.55556 7.79663 7.93477 6.45342 9.42057C5.78864 10.1559 5.27649 10.8949 4.93073 11.4501C4.79629 11.666 4.68817 11.8532 4.60627 12C4.68817 12.1468 4.79629 12.334 4.93073 12.5499C5.27649 13.1051 5.78864 13.8441 6.45342 14.5794C7.79663 16.0652 9.67472 17.4444 12 17.4444C14.3253 17.4444 16.2034 16.0652 17.5466 14.5794C18.2114 13.8441 18.7235 13.1051 19.0693 12.5499C19.2036 12.3342 19.3111 12.1467 19.393 12C19.3111 11.8533 19.2036 11.6658 19.0693 11.4501C18.7235 10.8949 18.2114 10.1559 17.5466 9.42057C16.2034 7.93477 14.3253 6.55556 12 6.55556ZM13.5 12C13.5 11.1409 12.8284 10.4444 12 10.4444C11.1716 10.4444 10.5 11.1409 10.5 12C10.5 12.8591 11.1716 13.5556 12 13.5556C12.8284 13.5556 13.5 12.8591 13.5 12ZM3.75007 12L3.07918 12.3479C2.97361 12.1289 2.97361 11.8711 3.07918 11.6521L3.75007 12ZM20.9208 11.6521C21.0264 11.8711 21.0264 12.1289 20.9208 12.3479L20.2499 12L20.9208 11.6521ZM15 12C15 13.7182 13.6568 15.1111 12 15.1111C10.3432 15.1111 9.00003 13.7182 9.00003 12C9.00003 10.2818 10.3432 8.88889 12 8.88889C13.6568 8.88889 15 10.2818 15 12Z" fill="#011729"/>
</svg>
