<svg width="25" height="24" viewBox="0 0 25 24" fill="none" xmlns="http://www.w3.org/2000/svg">
<path fill-rule="evenodd" clip-rule="evenodd" d="M0.28125 12C0.28125 5.37258 5.65383 0 12.2812 0C18.9087 0 24.2812 5.37258 24.2812 12C24.2812 18.6274 18.9087 24 12.2812 24C5.65383 24 0.28125 18.6274 0.28125 12Z" fill="white"/>
<path fill-rule="evenodd" clip-rule="evenodd" d="M12.2811 6.94C13.8303 6.94 14.8753 7.60917 15.4711 8.16833L17.7995 5.895C16.3695 4.56583 14.5086 3.75 12.2811 3.75C9.05447 3.75 6.2678 5.60167 4.91113 8.29667L7.57863 10.3683C8.2478 8.37917 10.0995 6.94 12.2811 6.94Z" fill="#EA4335"/>
<path fill-rule="evenodd" clip-rule="evenodd" d="M20.2013 12.1833C20.2013 11.505 20.1463 11.01 20.0271 10.4966H12.2812V13.5583H16.8279C16.7363 14.3191 16.2413 15.465 15.1413 16.235L17.7446 18.2516C19.3029 16.8125 20.2013 14.695 20.2013 12.1833Z" fill="#4285F4"/>
<path fill-rule="evenodd" clip-rule="evenodd" d="M7.58792 13.6317C7.41375 13.1184 7.31292 12.5684 7.31292 12C7.31292 11.4317 7.41375 10.8817 7.57875 10.3684L4.91125 8.29669C4.35208 9.41503 4.03125 10.6709 4.03125 12C4.03125 13.3292 4.35208 14.585 4.91125 15.7034L7.58792 13.6317Z" fill="#FBBC05"/>
<path fill-rule="evenodd" clip-rule="evenodd" d="M12.2808 20.25C14.5083 20.25 16.3783 19.5167 17.7441 18.2517L15.1408 16.235C14.4441 16.7208 13.5091 17.06 12.2808 17.06C10.0991 17.06 8.24742 15.6208 7.58742 13.6317L4.91992 15.7033C6.27659 18.3983 9.05409 20.25 12.2808 20.25Z" fill="#34A853"/>
</svg>
