<svg width="33" height="32" viewBox="0 0 33 32" fill="none" xmlns="http://www.w3.org/2000/svg">
<path fill-rule="evenodd" clip-rule="evenodd" d="M0.78125 16C0.78125 7.16344 7.94469 0 16.7812 0C25.6178 0 32.7812 7.16344 32.7812 16C32.7812 24.8366 25.6178 32 16.7812 32C7.94469 32 0.78125 24.8366 0.78125 16Z" fill="#0077B5"/>
<path d="M12.0889 24.1465H8.46289V13.252H12.0889V24.1465ZM20.9902 12.9961C23.3762 12.9961 25.1649 14.5534 25.165 17.8994V24.1465H21.5391V18.3174C21.539 16.8537 21.0144 15.8547 19.7021 15.8545C18.7005 15.8545 18.1039 16.5283 17.8418 17.1787C17.7459 17.4118 17.7217 17.7369 17.7217 18.0625V24.1465H14.0957C14.0959 24.096 14.1434 14.2716 14.0957 13.252H17.7217V14.7949C18.2029 14.0531 19.0652 12.9961 20.9902 12.9961ZM10.2998 8C11.54 8.00018 12.3036 8.81376 12.3271 9.88184C12.3271 10.9279 11.5397 11.7646 10.2754 11.7646H10.252C9.03487 11.7645 8.24807 10.9278 8.24805 9.88184C8.24805 8.81364 9.05939 8 10.2998 8Z" fill="white"/>
</svg>
