<svg width="16" height="16" viewBox="0 0 16 16" fill="none" xmlns="http://www.w3.org/2000/svg">
    <g clip-path="url(#clip0_1115_6)">
        <path
            d="M14.222 9.03671H9.03671V14.222C9.03671 14.7923 8.57008 15.2589 7.9997 15.2589C7.42934 15.2589 6.96267 14.7923 6.96267 14.222V9.03671H1.77748C1.20712 9.03671 0.740448 8.57008 0.740448 7.9997C0.740448 7.42934 1.20712 6.96267 1.77748 6.96267H6.96267V1.77748C6.96267 1.20712 7.42934 0.740448 7.9997 0.740448C8.57008 0.740448 9.03671 1.20712 9.03671 1.77748V6.96267H14.222C14.7923 6.96267 15.2589 7.42934 15.2589 7.9997C15.2589 8.57008 14.7923 9.03671 14.222 9.03671Z"
            fill="white" />
    </g>
    <defs>
        <clipPath id="clip0_1115_6">
            <rect width="16" height="16" fill="white" />
        </clipPath>
    </defs>
</svg>