<svg width="213" height="141" viewBox="0 0 213 141" fill="none" xmlns="http://www.w3.org/2000/svg">
<g clip-path="url(#clip0_126_922)">
<rect x="0.957031" y="51.3315" width="194" height="92" rx="20" transform="rotate(-15.1065 0.957031 51.3315)" fill="#C549FF" fill-opacity="0.06"/>
<rect x="24.7734" y="66.6541" width="68" height="49.3848" rx="12" transform="rotate(-15.1065 24.7734 66.6541)" fill="#9243BA"/>
<path d="M52.593 93.9226C51.28 94.277 50.0714 94.4044 48.9672 94.3047C47.8786 94.2008 46.9603 93.8687 46.2124 93.3082C45.4603 92.7323 44.9404 91.9115 44.6527 90.8456C44.3274 89.6407 44.4292 88.5443 44.958 87.5564C45.4981 86.5488 46.3681 85.7505 47.568 85.1614L47.7457 85.6355C46.6482 85.6831 45.7071 85.4814 44.9224 85.0303C44.149 84.5596 43.6268 83.8223 43.3558 82.8182C43.1181 81.9377 43.1315 81.0972 43.396 80.2966C43.676 79.4918 44.1963 78.7796 44.9571 78.1599C45.7333 77.536 46.7316 77.0594 47.9519 76.73C49.1877 76.3964 50.2902 76.3059 51.2595 76.4586C52.2443 76.6071 53.0523 76.9607 53.6838 77.5195C54.3307 78.074 54.7729 78.7916 55.0106 79.6721C55.2817 80.6761 55.1916 81.5705 54.7405 82.3552C54.3049 83.1357 53.603 83.7892 52.6347 84.3157L52.5497 83.8166C53.8831 83.7219 55.0289 83.976 55.9872 84.5791C56.9413 85.1668 57.581 86.063 57.9063 87.2679C58.194 88.3338 58.1578 89.3047 57.7977 90.1809C57.4488 91.0374 56.8301 91.7844 55.9416 92.422C55.0531 93.0596 53.9369 93.5598 52.593 93.9226ZM51.8799 91.2811C52.9458 90.9934 53.737 90.5478 54.2536 89.9443C54.7814 89.3212 54.9286 88.5772 54.6951 87.7121C54.4741 86.8934 53.9956 86.3183 53.2598 85.9866C52.5352 85.6353 51.5936 85.616 50.4351 85.9287C49.292 86.2373 48.488 86.7278 48.0232 87.4001C47.5696 88.0529 47.4534 88.7886 47.6744 89.6073C47.9079 90.4724 48.4018 91.0434 49.156 91.3204C49.9061 91.5819 50.8141 91.5689 51.8799 91.2811ZM49.8284 83.6812C50.6934 83.4477 51.3174 83.0886 51.7004 82.6041C52.0946 82.0999 52.1937 81.4848 51.9977 80.7588C51.8184 80.0946 51.4449 79.6319 50.8773 79.3709C50.3096 79.1098 49.5701 79.1022 48.6587 79.3483C47.7782 79.5859 47.1507 79.9625 46.7761 80.4779C46.4169 80.9892 46.327 81.577 46.5063 82.2412C46.7023 82.9672 47.0897 83.4509 47.6687 83.6924C48.2434 83.9184 48.9633 83.9147 49.8284 83.6812ZM63.6955 90.5278L60.6495 79.2437L57.1275 80.1944L56.5083 77.9005L57.9217 77.519C58.5859 77.3397 59.0959 77.1109 59.4517 76.8325C59.8075 76.5542 60.014 76.1836 60.0713 75.7206C60.1399 75.2381 60.0763 74.6338 59.8803 73.9078L62.2668 73.2635L66.7077 89.7147L63.6955 90.5278ZM70.8543 79.4969C69.773 79.7888 68.7853 79.6908 67.8913 79.203C66.9973 78.7151 66.3668 77.7915 65.9998 76.4322C65.6329 75.0728 65.713 73.9574 66.24 73.0859C66.7671 72.2144 67.5713 71.6328 68.6526 71.3409C69.7494 71.0448 70.737 71.1428 71.6156 71.6348C72.5097 72.1227 73.1402 73.0463 73.5071 74.4056C73.8741 75.765 73.794 76.8804 73.2669 77.7519C72.7552 78.6192 71.951 79.2009 70.8543 79.4969ZM70.404 77.8286C70.9446 77.6827 71.292 77.3735 71.4462 76.901C71.6117 76.4088 71.5881 75.7689 71.3754 74.9811C71.1628 74.1933 70.8632 73.6361 70.4767 73.3095C70.1015 72.9633 69.6436 72.8632 69.103 73.0092C68.5778 73.1509 68.2324 73.4679 68.067 73.96C67.8973 74.4367 67.9189 75.0689 68.1315 75.8567C68.3442 76.6445 68.6458 77.2094 69.0365 77.5515C69.4229 77.878 69.8788 77.9704 70.404 77.8286ZM82.8326 85.5608C81.7513 85.8527 80.7636 85.7547 79.8696 85.2668C78.9755 84.779 78.345 83.8554 77.9781 82.496C77.6111 81.1367 77.6912 80.0213 78.2183 79.1498C78.7454 78.2783 79.5496 77.6966 80.6309 77.4047C81.7276 77.1087 82.7153 77.2066 83.5939 77.6987C84.4725 78.1907 85.0953 79.1164 85.4622 80.4757C85.8291 81.8351 85.7568 82.9484 85.2451 83.8157C84.7335 84.683 83.9293 85.2647 82.8326 85.5608ZM82.3822 83.8925C82.9229 83.7466 83.2703 83.4373 83.4245 82.9648C83.5899 82.4727 83.5663 81.8327 83.3537 81.0449C83.141 80.2571 82.8414 79.6999 82.455 79.3734C82.0798 79.0272 81.6219 78.9271 81.0812 79.073C80.556 79.2148 80.2107 79.5317 80.0452 80.0239C79.8756 80.5005 79.8971 81.1328 80.1098 81.9206C80.3224 82.7084 80.6241 83.2733 81.0147 83.6153C81.4012 83.9419 81.857 84.0343 82.3822 83.8925ZM71.4057 88.4465L78.0404 69.0056L80.0795 68.4552L73.4447 87.8961L71.4057 88.4465Z" fill="white"/>
<path d="M108.686 64.4L104.985 50.6907L110.72 49.1426C111.711 48.875 112.612 48.8113 113.423 48.9514C114.235 49.0915 114.923 49.4166 115.489 49.9268C116.055 50.437 116.451 51.1104 116.677 51.9471C116.847 52.5779 116.863 53.1743 116.725 53.7364C116.586 54.2986 116.325 54.7902 115.942 55.2114C115.571 55.6291 115.118 55.9448 114.582 56.1586L114.433 55.9916C115.321 55.7518 116.057 55.7672 116.641 56.0376C117.238 56.3046 117.68 56.8414 117.967 57.6479L119.383 61.5124L116.834 62.2004L115.575 58.6871C115.39 58.1569 115.109 57.8047 114.731 57.6307C114.352 57.4566 113.802 57.4669 113.082 57.6615L109.799 58.5476L111.196 63.7224L108.686 64.4ZM109.205 56.3464L112.275 55.5176C113.034 55.3126 113.578 54.9725 113.905 54.4974C114.233 54.0223 114.308 53.4565 114.131 52.8C113.95 52.1307 113.592 51.6748 113.057 51.4325C112.535 51.1868 111.862 51.1751 111.039 51.3975L108.084 52.195L109.205 56.3464ZM125.64 60.0718C124.611 60.3498 123.657 60.3725 122.779 60.1398C121.898 59.8943 121.142 59.4216 120.511 58.7219C119.88 58.0221 119.419 57.1316 119.127 56.0503C118.835 54.969 118.788 53.9737 118.984 53.0644C119.177 52.1422 119.586 51.3551 120.211 50.703C120.849 50.0474 121.67 49.5841 122.674 49.3131C123.652 49.049 124.567 49.0368 125.419 49.2764C126.284 49.5125 127.027 49.9886 127.649 50.7047C128.27 51.4209 128.737 52.3582 129.05 53.5167L129.201 54.0767L121.883 56.0521C122.178 56.9393 122.606 57.5555 123.169 57.9008C123.741 58.2297 124.394 58.2952 125.128 58.0971C125.681 57.9477 126.105 57.702 126.4 57.3602C126.704 57.0019 126.866 56.5784 126.886 56.0897L129.457 55.5613C129.445 56.6418 129.098 57.5847 128.418 58.3898C127.75 59.1915 126.825 59.7521 125.64 60.0718ZM121.435 54.3916L126.204 53.1041C125.927 52.2813 125.522 51.7277 124.989 51.4434C124.453 51.1461 123.857 51.0861 123.2 51.2633C122.544 51.4405 122.054 51.8006 121.731 52.3435C121.421 52.883 121.322 53.5657 121.435 54.3916ZM136.203 57.2204C135.186 57.4949 134.29 57.578 133.515 57.4695C132.753 57.3576 132.114 57.0882 131.598 56.6612C131.083 56.2342 130.709 55.6929 130.477 55.0375L132.975 54.2388C133.211 54.7551 133.549 55.1127 133.989 55.3114C134.43 55.5102 135.004 55.5141 135.712 55.3229C136.291 55.1666 136.717 54.9548 136.99 54.6878C137.273 54.4043 137.36 54.0631 137.253 53.664C137.19 53.4323 137.08 53.2549 136.923 53.1317C136.765 53.0085 136.51 52.9324 136.157 52.9034C135.804 52.8744 135.296 52.8871 134.634 52.9415C133.53 53.0463 132.64 53.0516 131.966 52.9574C131.288 52.8504 130.766 52.6321 130.401 52.3026C130.049 51.9696 129.793 51.507 129.633 50.9148C129.372 49.9494 129.529 49.0716 130.103 48.2814C130.686 47.4748 131.692 46.8787 133.121 46.493C134.048 46.2428 134.868 46.187 135.583 46.3257C136.293 46.4515 136.894 46.7314 137.384 47.1653C137.883 47.5829 138.268 48.1143 138.539 48.7593L136.079 49.5476C135.921 49.2174 135.724 48.9461 135.487 48.7339C135.25 48.5216 134.973 48.3893 134.655 48.337C134.333 48.2719 133.979 48.2914 133.593 48.3957C133.014 48.552 132.608 48.786 132.374 49.0977C132.141 49.4093 132.076 49.7582 132.18 50.1444C132.253 50.4147 132.378 50.6226 132.556 50.7681C132.746 50.9101 133.011 50.9973 133.351 51.0297C133.688 51.0493 134.126 51.0347 134.665 50.9858C135.792 50.8612 136.7 50.8507 137.391 50.9543C138.092 51.0414 138.626 51.2563 138.995 51.5987C139.373 51.9248 139.638 52.371 139.791 52.9374C139.968 53.5939 139.933 54.2042 139.685 54.7684C139.449 55.3291 139.03 55.8221 138.427 56.2474C137.833 56.6563 137.092 56.9807 136.203 57.2204ZM145.566 54.693C144.523 54.9745 143.601 54.8575 142.799 54.342C142.006 53.8102 141.445 52.9329 141.115 51.71L139.322 45.0677L141.793 44.4005L143.42 50.4249C143.652 51.2874 143.966 51.8863 144.36 52.2218C144.764 52.5409 145.262 52.6206 145.854 52.4607C146.524 52.28 146.98 51.9222 147.222 51.3873C147.474 50.8359 147.485 50.1355 147.255 49.2859L145.655 43.3581L148.127 42.6909L150.91 53.0018L148.651 53.6117L147.827 50.7889L148.162 50.8021C148.271 51.8221 148.104 52.6613 147.661 53.3197C147.217 53.9781 146.519 54.4359 145.566 54.693ZM153.24 52.3728L150.457 42.0619L152.697 41.4573L153.457 43.9659L153.194 43.9126C153.16 43.3278 153.233 42.8041 153.412 42.3415C153.6 41.8625 153.873 41.4644 154.229 41.1473C154.595 40.8138 155.029 40.5792 155.531 40.4437C156.406 40.2074 157.182 40.2673 157.858 40.6234C158.53 40.9666 159.054 41.5504 159.428 42.3746L159.1 42.4632C159.053 41.8269 159.117 41.271 159.292 40.7955C159.464 40.3072 159.733 39.8962 160.099 39.5627C160.477 39.2258 160.937 38.9843 161.478 38.8383C162.186 38.6472 162.839 38.6366 163.437 38.8066C164.032 38.9637 164.543 39.2954 164.969 39.8016C165.409 40.3045 165.743 40.9807 165.973 41.8303L167.761 48.4532L165.289 49.1204L163.673 43.1346C163.444 42.285 163.124 41.6878 162.713 41.3429C162.315 40.9946 161.82 40.9003 161.228 41.0602C160.829 41.1679 160.516 41.363 160.288 41.6454C160.061 41.9278 159.923 42.2893 159.877 42.7301C159.839 43.1545 159.895 43.6435 160.045 44.197L161.64 50.1055L159.342 50.7258L157.747 44.8172C157.518 43.9677 157.213 43.3523 156.834 42.9713C156.455 42.5902 155.95 42.4849 155.32 42.6551C154.921 42.7628 154.607 42.9579 154.38 43.2403C154.165 43.5193 154.028 43.8808 153.968 44.3251C153.918 44.7529 153.967 45.2436 154.117 45.7971L155.712 51.7057L153.24 52.3728ZM174.348 46.9236C173.318 47.2016 172.364 47.2243 171.487 46.9917C170.605 46.7461 169.849 46.2735 169.219 45.5737C168.588 44.8739 168.126 43.9834 167.835 42.9021C167.543 41.8208 167.495 40.8255 167.691 39.9162C167.884 38.994 168.293 38.2069 168.918 37.5548C169.556 36.8993 170.377 36.436 171.381 36.1649C172.36 35.9008 173.275 35.8886 174.127 36.1282C174.991 36.3643 175.734 36.8405 176.356 37.5566C176.977 38.2727 177.444 39.21 177.757 40.3686L177.908 40.9285L170.59 42.904C170.885 43.7912 171.314 44.4074 171.876 44.7527C172.449 45.0816 173.102 45.147 173.835 44.9489C174.389 44.7995 174.813 44.5539 175.107 44.212C175.411 43.8538 175.573 43.4303 175.593 42.9415L178.164 42.4132C178.152 43.4937 177.806 44.4365 177.125 45.2416C176.458 46.0433 175.532 46.604 174.348 46.9236ZM170.142 41.2434L174.911 39.956C174.634 39.1332 174.229 38.5796 173.696 38.2952C173.16 37.9979 172.564 37.9379 171.908 38.1151C171.251 38.2924 170.761 38.6524 170.438 39.1954C170.128 39.7348 170.03 40.4175 170.142 41.2434ZM120.199 86.4826C119.066 86.7884 118.034 86.853 117.102 86.6763C116.171 86.4997 115.371 86.1216 114.704 85.5422C114.046 84.9464 113.55 84.1827 113.215 83.251L115.722 82.4085C115.959 82.9798 116.262 83.4366 116.631 83.7791C117.012 84.118 117.451 84.3378 117.948 84.4385C118.454 84.5229 119.023 84.4799 119.654 84.3096C120.194 84.1637 120.634 83.976 120.972 83.7465C121.32 83.5006 121.556 83.2229 121.68 82.9133C121.813 82.5874 121.827 82.2314 121.723 81.8452C121.629 81.4976 121.462 81.2113 121.222 80.9861C120.978 80.7481 120.588 80.584 120.053 80.4937C119.514 80.3906 118.745 80.3564 117.746 80.3912C116.544 80.4396 115.558 80.3949 114.789 80.2573C114.017 80.1067 113.41 79.8286 112.969 79.4228C112.525 79.0042 112.202 78.4216 112 77.675C111.785 76.8769 111.795 76.1215 112.03 75.4087C112.263 74.6831 112.701 74.0539 113.344 73.5212C113.984 72.9756 114.819 72.5638 115.848 72.2858C116.943 71.9904 117.923 71.9397 118.791 72.1338C119.654 72.3149 120.397 72.6876 121.019 73.2517C121.641 73.8158 122.123 74.528 122.466 75.3884L119.968 76.1871C119.768 75.7024 119.495 75.3065 119.15 74.9992C118.817 74.6884 118.417 74.4857 117.95 74.3909C117.492 74.2798 116.973 74.3024 116.394 74.4588C115.673 74.6534 115.145 74.9754 114.811 75.4247C114.486 75.8577 114.396 76.3446 114.542 76.8852C114.643 77.2585 114.81 77.5449 115.043 77.7443C115.289 77.9402 115.662 78.0675 116.161 78.1261C116.657 78.1718 117.336 78.1817 118.2 78.1559C119.492 78.0832 120.552 78.1491 121.381 78.3536C122.21 78.5581 122.85 78.8825 123.301 79.3269C123.752 79.7712 124.07 80.3345 124.254 81.0168C124.48 81.8535 124.464 82.6381 124.206 83.3707C123.945 84.0904 123.473 84.7218 122.791 85.265C122.105 85.7953 121.241 86.2012 120.199 86.4826ZM131.971 83.222C130.941 83.5 129.987 83.5226 129.11 83.29C128.229 83.0445 127.466 82.5735 126.823 81.8772C126.192 81.1775 125.73 80.2869 125.438 79.2056C125.147 78.1243 125.099 77.129 125.295 76.2197C125.501 75.2941 125.923 74.5035 126.561 73.8479C127.199 73.1924 128.033 72.7256 129.062 72.4476C129.938 72.2113 130.758 72.1556 131.524 72.2804C132.29 72.4051 132.963 72.6998 133.544 73.1644C134.135 73.6127 134.593 74.2348 134.918 75.0308L132.406 75.854C132.126 75.2253 131.734 74.7992 131.232 74.5757C130.739 74.3359 130.197 74.2959 129.605 74.4557C128.806 74.6712 128.27 75.1405 127.996 75.8636C127.718 76.5739 127.722 77.4568 128.007 78.5124C128.295 79.5808 128.738 80.352 129.335 80.826C129.933 81.3 130.631 81.4293 131.429 81.2138C132.034 81.0505 132.489 80.7412 132.794 80.286C133.112 79.8272 133.217 79.2188 133.109 78.4607L135.689 77.8886C135.809 78.7402 135.738 79.5259 135.476 80.2455C135.215 80.9652 134.788 81.5845 134.196 82.1034C133.601 82.6093 132.859 82.9822 131.971 83.222ZM142.597 80.3536C141.58 80.6281 140.626 80.6508 139.736 80.4216C138.855 80.1761 138.092 79.7052 137.448 79.0089C136.818 78.3091 136.356 77.4185 136.064 76.3372C135.769 75.2431 135.72 74.2413 135.916 73.332C136.122 72.4064 136.546 71.6222 137.187 70.9796C137.838 70.3205 138.671 69.8538 139.688 69.5792C140.705 69.3047 141.654 69.2902 142.535 69.5358C143.413 69.7684 144.167 70.2346 144.798 70.9344C145.438 71.6178 145.906 72.5066 146.202 73.6008C146.493 74.6821 146.536 75.6856 146.331 76.6112C146.138 77.5334 145.722 78.3222 145.084 78.9778C144.443 79.6205 143.614 80.0791 142.597 80.3536ZM142.055 78.3455C142.853 78.13 143.384 77.6689 143.649 76.9621C143.927 76.2518 143.922 75.3625 143.633 74.294C143.349 73.2385 142.907 72.4737 142.31 71.9997C141.722 71.5094 141.029 71.3719 140.23 71.5874C139.432 71.8028 138.896 72.2721 138.622 72.9953C138.344 73.7055 138.348 74.5885 138.632 75.644C138.921 76.7124 139.364 77.4836 139.961 77.9576C140.559 78.4316 141.257 78.5609 142.055 78.3455ZM149.114 78.3457L146.331 68.0347L148.648 67.4093L149.516 70.2409L149.293 70.2596C149.18 69.2268 149.277 68.4341 149.583 67.8818C149.899 67.3131 150.431 66.928 151.177 66.7265L152.124 66.4711L152.697 68.595L151.731 68.8557C151.204 68.9981 150.787 69.1935 150.481 69.4418C150.175 69.6901 149.977 70.0059 149.887 70.3892C149.807 70.7562 149.838 71.2036 149.98 71.7314L151.586 77.6785L149.114 78.3457ZM160.379 75.5535C159.349 75.8315 158.395 75.8542 157.517 75.6215C156.636 75.376 155.88 74.9034 155.25 74.2036C154.619 73.5038 154.157 72.6133 153.865 71.532C153.574 70.4507 153.526 69.4554 153.722 68.5461C153.915 67.6239 154.324 66.8368 154.949 66.1847C155.587 65.5292 156.408 65.0659 157.412 64.7948C158.391 64.5307 159.306 64.5185 160.158 64.7581C161.022 64.9942 161.765 65.4703 162.387 66.1865C163.008 66.9026 163.475 67.8399 163.788 68.9985L163.939 69.5584L156.621 71.5339C156.916 72.421 157.345 73.0373 157.907 73.3825C158.48 73.7115 159.133 73.7769 159.866 73.5788C160.42 73.4294 160.844 73.1838 161.138 72.8419C161.442 72.4837 161.604 72.0602 161.624 71.5714L164.195 71.0431C164.183 72.1236 163.837 73.0664 163.156 73.8715C162.489 74.6732 161.563 75.2338 160.379 75.5535ZM156.173 69.8733L160.942 68.5859C160.665 67.7631 160.26 67.2095 159.727 66.9251C159.191 66.6278 158.595 66.5678 157.939 66.745C157.282 66.9222 156.792 67.2823 156.469 67.8253C156.159 68.3647 156.06 69.0474 156.173 69.8733Z" fill="#666666"/>
</g>
<defs>
<clipPath id="clip0_126_922">
<rect x="0.957031" y="51.3315" width="194" height="92" rx="20" transform="rotate(-15.1065 0.957031 51.3315)" fill="white"/>
</clipPath>
</defs>
</svg>
