<svg width="17" height="17" viewBox="0 0 17 17" fill="none" xmlns="http://www.w3.org/2000/svg">
    <g clip-path="url(#clip0_2733_1811)">
        <path
            d="M13.458 6.37467L14.3434 4.42676L16.2913 3.54134L14.3434 2.65592L13.458 0.708008L12.5726 2.65592L10.6247 3.54134L12.5726 4.42676L13.458 6.37467Z"
            fill="white" />
        <path
            d="M13.458 10.6247L12.5726 12.5726L10.6247 13.458L12.5726 14.3434L13.458 16.2913L14.3434 14.3434L16.2913 13.458L14.3434 12.5726L13.458 10.6247Z"
            fill="white" />
        <path
            d="M8.14551 6.72884L6.37467 2.83301L4.60384 6.72884L0.708008 8.49967L4.60384 10.2705L6.37467 14.1663L8.14551 10.2705L12.0413 8.49967L8.14551 6.72884ZM7.07592 9.20092L6.37467 10.7451L5.67342 9.20092L4.12926 8.49967L5.67342 7.79842L6.37467 6.25426L7.07592 7.79842L8.62009 8.49967L7.07592 9.20092Z"
            fill="white" />
    </g>
    <defs>
        <clipPath id="clip0_2733_1811">
            <rect width="17" height="17" fill="white" />
        </clipPath>
    </defs>
</svg>